<?xml version="1.0" encoding="UTF-8" standalone="no"?>
<!-- Generator: Adobe Illustrator 16.0.0, SVG Export Plug-In . SVG Version: 6.00 Build 0)  -->

<svg
   version="1.1"
   x="0px"
   y="0px"
   width="250px"
   height="250px"
   viewBox="0 0 250 250"
   enable-background="new 0 0 250 250"
   xml:space="preserve"
   id="svg239"
   sodipodi:docname="logo-final-sans-fond.svg"
   inkscape:version="1.2.2 (732a01da63, 2022-12-09)"
   inkscape:export-filename="logo-final-sans-fond16.png"
   inkscape:export-xdpi="6.1440001"
   inkscape:export-ydpi="6.1440001"
   xmlns:inkscape="http://www.inkscape.org/namespaces/inkscape"
   xmlns:sodipodi="http://sodipodi.sourceforge.net/DTD/sodipodi-0.dtd"
   xmlns="http://www.w3.org/2000/svg"
   xmlns:svg="http://www.w3.org/2000/svg"><defs
   id="defs243"><linearGradient
   id="linearGradient16597"
   inkscape:swatch="solid"><stop
     style="stop-color:#ffffff;stop-opacity:1;"
     offset="0"
     id="stop16595" /></linearGradient>
	
	
	
	
	
	
	
	<linearGradient
   id="SVGID_1_"
   gradientUnits="userSpaceOnUse"
   x1="15.2642"
   y1="144"
   x2="102.0586"
   y2="144">
		<stop
   offset="0"
   style="stop-color:#FF8000;stop-opacity:0"
   id="stop17" />
		<stop
   offset="0.1645"
   style="stop-color:#FB7E00;stop-opacity:0.1645"
   id="stop19" />
		<stop
   offset="0.3317"
   style="stop-color:#EF7900;stop-opacity:0.3317"
   id="stop21" />
		<stop
   offset="0.5001"
   style="stop-color:#DA6F00;stop-opacity:0.5001"
   id="stop23" />
		<stop
   offset="0.6694"
   style="stop-color:#BE6200;stop-opacity:0.6694"
   id="stop25" />
		<stop
   offset="0.8377"
   style="stop-color:#9A5100;stop-opacity:0.8377"
   id="stop27" />
		<stop
   offset="1"
   style="stop-color:#6F3E00"
   id="stop29" />
	</linearGradient>
	
	<linearGradient
   id="SVGID_2_"
   gradientUnits="userSpaceOnUse"
   x1="6.5311999"
   y1="186.8867"
   x2="142.22659"
   y2="186.8867">
		<stop
   offset="0"
   style="stop-color:#FF8000;stop-opacity:0"
   id="stop34" />
		<stop
   offset="0.1645"
   style="stop-color:#FB7E00;stop-opacity:0.1645"
   id="stop36" />
		<stop
   offset="0.3317"
   style="stop-color:#EF7900;stop-opacity:0.3317"
   id="stop38" />
		<stop
   offset="0.5001"
   style="stop-color:#DA6F00;stop-opacity:0.5001"
   id="stop40" />
		<stop
   offset="0.6694"
   style="stop-color:#BE6200;stop-opacity:0.6694"
   id="stop42" />
		<stop
   offset="0.8377"
   style="stop-color:#9A5100;stop-opacity:0.8377"
   id="stop44" />
		<stop
   offset="1"
   style="stop-color:#6F3E00"
   id="stop46" />
	</linearGradient>
	
	<linearGradient
   id="SVGID_3_"
   gradientUnits="userSpaceOnUse"
   x1="6.5311999"
   y1="208.3652"
   x2="142.22659"
   y2="208.3652">
		<stop
   offset="0"
   style="stop-color:#FF8000;stop-opacity:0"
   id="stop51" />
		<stop
   offset="0.1645"
   style="stop-color:#FB7E00;stop-opacity:0.1645"
   id="stop53" />
		<stop
   offset="0.3317"
   style="stop-color:#EF7900;stop-opacity:0.3317"
   id="stop55" />
		<stop
   offset="0.5001"
   style="stop-color:#DA6F00;stop-opacity:0.5001"
   id="stop57" />
		<stop
   offset="0.6694"
   style="stop-color:#BE6200;stop-opacity:0.6694"
   id="stop59" />
		<stop
   offset="0.8377"
   style="stop-color:#9A5100;stop-opacity:0.8377"
   id="stop61" />
		<stop
   offset="1"
   style="stop-color:#6F3E00"
   id="stop63" />
	</linearGradient>
	
	<linearGradient
   id="SVGID_4_"
   gradientUnits="userSpaceOnUse"
   x1="6.5311999"
   y1="164.9639"
   x2="120.0166"
   y2="164.9639">
		<stop
   offset="0"
   style="stop-color:#FF8000;stop-opacity:0"
   id="stop68" />
		<stop
   offset="0.1645"
   style="stop-color:#FB7E00;stop-opacity:0.1645"
   id="stop70" />
		<stop
   offset="0.3317"
   style="stop-color:#EF7900;stop-opacity:0.3317"
   id="stop72" />
		<stop
   offset="0.5001"
   style="stop-color:#DA6F00;stop-opacity:0.5001"
   id="stop74" />
		<stop
   offset="0.6694"
   style="stop-color:#BE6200;stop-opacity:0.6694"
   id="stop76" />
		<stop
   offset="0.8377"
   style="stop-color:#9A5100;stop-opacity:0.8377"
   id="stop78" />
		<stop
   offset="1"
   style="stop-color:#6F3E00"
   id="stop80" />
	</linearGradient>
	
	
	
	
	
	
	
	
	
	
	
	
	
	
	
	
	
	
</defs><sodipodi:namedview
   id="namedview241"
   pagecolor="#505050"
   bordercolor="#eeeeee"
   borderopacity="1"
   inkscape:showpageshadow="0"
   inkscape:pageopacity="0"
   inkscape:pagecheckerboard="0"
   inkscape:deskcolor="#505050"
   showgrid="false"
   inkscape:zoom="0.944"
   inkscape:cx="20.65678"
   inkscape:cy="163.66525"
   inkscape:window-width="1280"
   inkscape:window-height="961"
   inkscape:window-x="-8"
   inkscape:window-y="-8"
   inkscape:window-maximized="1"
   inkscape:current-layer="layer2" />
<g
   id="background"
   style="display:inline">
</g>
<g
   inkscape:groupmode="layer"
   id="layer2"
   inkscape:label="Layer 2"
   style="display:inline"><rect
     style="fill:#1f1f1f;fill-opacity:1;stroke:none;stroke-width:4;stroke-linecap:square;stroke-dasharray:none;stroke-opacity:1"
     id="rect7263"
     width="249.80943"
     height="249.80943"
     x="0"
     y="0.37452689"
     rx="41.737293"
     ry="41.207626" /></g><g
   inkscape:groupmode="layer"
   id="layer1"
   inkscape:label="Layer 1"
   style="display:inline"><path
     style="fill:#572e02;fill-opacity:1;fill-rule:evenodd;stroke:none;stroke-width:1px;stroke-linecap:butt;stroke-linejoin:miter;stroke-opacity:1"
     d="m 17.228237,177.15122 -3.745269,-2.24716 -4.307059,-4.49432 -1.3108442,-5.24338 0.9363173,-5.24337 2.2471609,-3.74527 4.681587,-2.62169 4.868849,-1.31085 h 8.052329 l 19.100871,-0.18726 49.250287,-0.56179 v 26.40415 z"
     id="path663" /><path
     style="fill:#572e02;fill-opacity:1;fill-rule:evenodd;stroke:none;stroke-width:1px;stroke-linecap:butt;stroke-linejoin:miter;stroke-opacity:1"
     d="m 17.228237,201.96362 -3.745269,-2.24716 -4.3070588,-4.49432 -1.310844,-5.24338 0.936317,-5.24337 2.2471608,-3.74527 4.681587,-2.62169 4.868849,-1.31085 h 8.052329 l 19.100871,-0.18726 49.250287,-0.56179 v 26.40415 z"
     id="path663-6" /><path
     style="fill:#572e02;fill-opacity:1;fill-rule:evenodd;stroke:none;stroke-width:1px;stroke-linecap:butt;stroke-linejoin:miter;stroke-opacity:1"
     d="m 17.228237,225.55882 -3.745269,-2.24716 -4.3070589,-4.49432 -1.310844,-5.24338 0.936317,-5.24337 2.2471609,-3.74527 4.681587,-2.62169 4.868849,-1.31085 h 8.052329 l 19.100871,-0.18726 49.250284,-0.56179 v 26.40415 z"
     id="path663-6-3" /><path
     style="fill:#572e02;fill-opacity:1;fill-rule:evenodd;stroke:#572e02;stroke-width:1px;stroke-linecap:butt;stroke-linejoin:miter;stroke-opacity:1"
     d="m 96.398305,177.70127 22.643005,-5.82627 -2.11864,-1.82071 -1.58898,-1.42346 c 0,0 -1.82071,-1.62209 -2.08554,-1.95313 -0.26483,-0.33104 -2.18486,-2.41658 -2.38348,-2.68141 -0.19863,-0.26483 -1.68829,-2.08553 -1.68829,-2.08553 0,0 -1.22485,-1.62209 -1.45657,-1.95313 -0.23172,-0.33104 -1.49653,-1.8303 -1.65519,-2.05244 -0.16551,-0.23173 -1.35725,-1.85382 -1.35725,-1.85382 l -1.22485,-1.7876 -1.32415,-1.7214 -0.92691,-1.19173 -4.766947,0.9269 z"
     id="path6037"
     sodipodi:nodetypes="ccccssczscccccc" /><path
     style="fill:#572e02;fill-opacity:1;fill-rule:evenodd;stroke:#572e02;stroke-width:1px;stroke-linecap:butt;stroke-linejoin:miter;stroke-opacity:1"
     d="m 118.9089,171.94121 2.6483,1.7876 c 0,0 2.84693,1.7214 3.11176,1.85382 0.26483,0.13241 2.37587,1.07091 2.66769,1.22719 0.54574,0.29225 1.58096,0.79781 1.84579,0.86402 0.26483,0.0662 1.82168,0.74435 2.75329,0.94298 0.49314,0.10514 2.34803,0.64268 2.34803,0.64268 0,0 2.37543,0.59587 2.64026,0.66208 0.26483,0.0662 2.91785,0.86873 3.18268,0.93494 0.26483,0.0662 1.51141,0.61859 1.51141,0.61859 l -0.0662,9.46769 -45.298497,10.55267 v -23.87609 z"
     id="path6039"
     sodipodi:nodetypes="ccsssscssccccc" /><path
     style="fill:#572e02;fill-opacity:1;fill-rule:evenodd;stroke:#572e02;stroke-width:1px;stroke-linecap:butt;stroke-linejoin:miter;stroke-opacity:1"
     d="m 96.347044,225.65246 0.09363,-24.06336 45.130496,-10.39312 -0.18727,17.88366 -18.76737,-0.0622 -3.04556,0.33104 -2.11864,0.52966 -1.45656,1.12553 c 0,0 -1.45658,1.45657 -1.58899,1.7214 -0.13242,0.26483 -0.8607,1.39036 -1.12553,1.7876 -0.26483,0.39725 -0.52966,1.52278 -0.59587,1.92002 -0.0662,0.39725 -0.39724,1.58898 -0.39724,1.58898 l -0.13242,2.18486 0.0662,1.92002 z"
     id="path6041"
     sodipodi:nodetypes="ccccccccssscccc" /></g><path
   fill="none"
   stroke="#ff8000"
   stroke-width="3"
   stroke-linecap="round"
   stroke-miterlimit="10"
   d="M 118.517,172.066 96.859,177.5 H 20.091 c -6.66,0 -12.06,4.984 -12.06,11.645 0,6.661 5.399,12.562 12.06,12.562 l 76.591,-0.206 h 0.316 l 43.728,-10.485"
   id="path3" /><path
   fill="none"
   stroke="#ff8000"
   stroke-width="3"
   stroke-linecap="round"
   stroke-miterlimit="10"
   d="M 140.727,190.952 96.859,201.5 H 20.091 c -6.66,0 -12.06,5.133 -12.06,11.792 0,6.659 5.399,12.487 12.06,12.487 L 96.682,225.5 h 0.316 l 14.717,-3.398"
   id="path5" /><path
   fill="none"
   stroke="#ff8000"
   stroke-width="3"
   stroke-linecap="round"
   stroke-miterlimit="10"
   d="m 96.846,151.404 -76.755,1.023 c -6.66,0 -12.06,5.234 -12.06,11.895 0,6.658 5.399,13.178 12.06,13.178 h 76.063 0.317 l 22.046,-5.434"
   id="path7" /><line
   fill="none"
   stroke="#ff8000"
   stroke-linecap="round"
   stroke-miterlimit="10"
   x1="20"
   y1="165.5"
   x2="48"
   y2="165.5"
   id="line9"
   style="stroke-width:2.5;stroke-dasharray:none" /><line
   fill="none"
   stroke="#ff8000"
   stroke-linecap="round"
   stroke-miterlimit="10"
   x1="20"
   y1="190.5"
   x2="90"
   y2="190.5"
   id="line11"
   style="stroke-width:2.5;stroke-dasharray:none" /><line
   fill="none"
   stroke="#ff8000"
   stroke-linecap="round"
   stroke-miterlimit="10"
   x1="20"
   y1="213.5"
   x2="64"
   y2="213.5"
   id="line13"
   style="stroke-width:2.5;stroke-dasharray:none" /><path
   fill="#ff8000"
   d="M 95.149,135 H 75.948 l -60.684,18 h 81.734 l 5.06,-1.17 C 98.925,146.699 96.568,141 95.149,135 Z"
   id="path15" /><path
   opacity="0.5"
   fill="url(#SVGID_1_)"
   d="M 95.149,135 H 75.948 l -60.684,18 h 81.734 l 5.06,-1.17 C 98.925,146.699 96.568,141 95.149,135 Z"
   id="path32"
   style="fill:url(#SVGID_1_)" /><path
   opacity="0.5"
   fill="none"
   stroke="url(#SVGID_2_)"
   stroke-width="3"
   stroke-linecap="round"
   stroke-miterlimit="10"
   d="M 118.517,172.066 96.859,177.5 H 20.091 c -6.66,0 -12.06,4.984 -12.06,11.645 0,6.661 5.399,12.562 12.06,12.562 l 76.591,-0.206 h 0.316 l 43.728,-10.485"
   id="path49"
   style="stroke:url(#SVGID_2_);stroke-width:4;stroke-dasharray:none" /><path
   opacity="0.5"
   fill="none"
   stroke="url(#SVGID_3_)"
   stroke-width="3"
   stroke-linecap="round"
   stroke-miterlimit="10"
   d="M 140.727,190.952 96.859,201.5 H 20.091 c -6.66,0 -12.06,5.133 -12.06,11.792 0,6.659 5.399,12.487 12.06,12.487 L 96.682,225.5 h 0.316 l 14.717,-3.398"
   id="path66"
   style="stroke:url(#SVGID_3_);stroke-width:4;stroke-dasharray:none" /><path
   opacity="0.5"
   fill="none"
   stroke="url(#SVGID_4_)"
   stroke-width="3"
   stroke-linecap="round"
   stroke-miterlimit="10"
   d="m 20.091,152.428 c -6.66,0 -12.06,5.234 -12.06,11.895 0,6.658 5.399,13.178 12.06,13.178 h 76.063 0.317 l 22.046,-5.434"
   id="path83"
   style="stroke:url(#SVGID_4_);stroke-width:4;stroke-dasharray:none" /><g
   id="g107">
		<g
   id="g89">
			<path
   fill="#00aaff"
   d="m 190.035,160.84 c 9.867,-9.867 15.484,-22.986 15.484,-36.939 0,-3.079 -2.403,-5.575 -5.482,-5.575 -3.078,0 -5.529,2.496 -5.529,5.575 0,10.976 -4.251,21.299 -12.012,29.061 -7.762,7.76 -18.058,12.039 -29.033,12.039 h -0.606 c -10.976,0 -21.294,-4.279 -29.056,-12.039 -7.761,-7.762 -12.035,-18.083 -12.035,-29.059 0,-3.078 -2.497,-5.576 -5.575,-5.576 -3.078,0 -5.574,2.496 -5.574,5.574 0,13.953 5.142,27.072 15.008,36.939 8.615,8.613 19.375,13.848 31.375,15.038 V 214 h -24.188 c -3.079,0 -5.575,2.922 -5.575,6 0,3.078 2.496,6 5.574,6 h 60.697 c 3.078,0 5.574,-2.922 5.574,-6 0,-3.078 -2.496,-6 -5.574,-6 H 158 v -38.122 c 13,-1.19 23.422,-6.425 32.035,-15.038 z"
   id="path85" />
			<path
   fill="#00aaff"
   d="m 167.033,122.094 v -7.12 h 16.229 v -7.166 h -16.229 v -7.119 h 16.229 v -7.167 h -16.229 v -7.119 h 16.229 v -7.167 h -16.229 v -7.119 h 16.229 v -1.316 c 0,-16.593 -13.451,-30.045 -30.045,-30.045 h -0.606 c -16.594,0 -30.044,13.452 -30.044,30.045 v 1.316 h 16.228 v 7.119 h -16.228 v 7.167 h 16.228 v 7.119 h -16.228 v 7.167 h 16.228 v 7.119 h -16.228 v 7.166 h 16.228 v 7.12 h -16.228 v 1.807 c 0,16.593 13.451,30.044 30.044,30.044 h 0.606 c 16.594,0 30.045,-13.451 30.045,-30.044 v -1.807 z"
   id="path87" />
		</g>
		<g
   id="g105">
			<linearGradient
   id="SVGID_5_"
   gradientUnits="userSpaceOnUse"
   x1="100.6162"
   y1="172.1631"
   x2="205.5195"
   y2="172.1631">
				<stop
   offset="0"
   style="stop-color:#00AAFF;stop-opacity:0"
   id="stop91" />
				<stop
   offset="0.9988"
   style="stop-color:#0063FF"
   id="stop93" />
			</linearGradient>
			<path
   fill="url(#SVGID_5_)"
   d="m 190.035,160.84 c 9.867,-9.867 15.484,-22.986 15.484,-36.939 0,-3.079 -2.403,-5.575 -5.482,-5.575 -3.078,0 -5.529,2.496 -5.529,5.575 0,10.976 -4.251,21.299 -12.012,29.061 -7.762,7.76 -18.058,12.039 -29.033,12.039 h -0.606 c -10.976,0 -21.294,-4.279 -29.056,-12.039 -7.761,-7.762 -12.035,-18.083 -12.035,-29.059 0,-3.078 -2.497,-5.576 -5.575,-5.576 -3.078,0 -5.574,2.496 -5.574,5.574 0,13.953 5.142,27.072 15.008,36.939 8.615,8.613 19.375,13.848 31.375,15.038 V 214 h -24.188 c -3.079,0 -5.575,2.922 -5.575,6 0,3.078 2.496,6 5.574,6 h 60.697 c 3.078,0 5.574,-2.922 5.574,-6 0,-3.078 -2.496,-6 -5.574,-6 H 158 v -38.122 c 13,-1.19 23.422,-6.425 32.035,-15.038 z"
   id="path96"
   style="fill:url(#SVGID_5_)" />
			<linearGradient
   id="SVGID_6_"
   gradientUnits="userSpaceOnUse"
   x1="122.5659"
   y1="97.350601"
   x2="183.2617"
   y2="97.350601">
				<stop
   offset="0"
   style="stop-color:#00AAFF;stop-opacity:0"
   id="stop98" />
				<stop
   offset="0.9988"
   style="stop-color:#0063FF"
   id="stop100" />
			</linearGradient>
			<path
   fill="url(#SVGID_6_)"
   d="m 167.033,122.094 v -7.12 h 16.229 v -7.166 h -16.229 v -7.119 h 16.229 v -7.167 h -16.229 v -7.119 h 16.229 v -7.167 h -16.229 v -7.119 h 16.229 v -1.316 c 0,-16.593 -13.451,-30.045 -30.045,-30.045 h -0.606 c -16.594,0 -30.044,13.452 -30.044,30.045 v 1.316 h 16.228 v 7.119 h -16.228 v 7.167 h 16.228 v 7.119 h -16.228 v 7.167 h 16.228 v 7.119 h -16.228 v 7.166 h 16.228 v 7.12 h -16.228 v 1.807 c 0,16.593 13.451,30.044 30.044,30.044 h 0.606 c 16.594,0 30.045,-13.451 30.045,-30.044 v -1.807 z"
   id="path103"
   style="fill:url(#SVGID_6_)" />
		</g>
	</g><g
   id="g206">
		<path
   fill="none"
   stroke="#00aaff"
   stroke-width="8"
   stroke-miterlimit="10"
   d="M 86,115 V 85.579 c 0,-21.855 8.572,-60.17 65.611,-60.17 57.04,0 66.389,38.315 66.389,60.17 V 115"
   id="path109" />
		<linearGradient
   id="SVGID_7_"
   gradientUnits="userSpaceOnUse"
   x1="82"
   y1="68.204597"
   x2="222"
   y2="68.204597">
			<stop
   offset="0"
   style="stop-color:#0063FF"
   id="stop111" />
			<stop
   offset="0.0182"
   style="stop-color:#006FFF;stop-opacity:0.9637"
   id="stop113" />
			<stop
   offset="0.0605"
   style="stop-color:#0085FF;stop-opacity:0.879"
   id="stop115" />
			<stop
   offset="0.1105"
   style="stop-color:#0096FF;stop-opacity:0.779"
   id="stop117" />
			<stop
   offset="0.1723"
   style="stop-color:#00A1FF;stop-opacity:0.6553"
   id="stop119" />
			<stop
   offset="0.2591"
   style="stop-color:#00A8FF;stop-opacity:0.4818"
   id="stop121" />
			<stop
   offset="0.5"
   style="stop-color:#00AAFF;stop-opacity:0"
   id="stop123" />
			<stop
   offset="0.7409"
   style="stop-color:#00A8FF;stop-opacity:0.4818"
   id="stop125" />
			<stop
   offset="0.8277"
   style="stop-color:#00A1FF;stop-opacity:0.6553"
   id="stop127" />
			<stop
   offset="0.8895"
   style="stop-color:#0096FF;stop-opacity:0.779"
   id="stop129" />
			<stop
   offset="0.9395"
   style="stop-color:#0085FF;stop-opacity:0.879"
   id="stop131" />
			<stop
   offset="0.9818"
   style="stop-color:#006FFF;stop-opacity:0.9637"
   id="stop133" />
			<stop
   offset="1"
   style="stop-color:#0063FF"
   id="stop135" />
		</linearGradient>
		<path
   fill="none"
   stroke="url(#SVGID_7_)"
   stroke-width="8"
   stroke-miterlimit="10"
   d="M 86,115 V 85.579 c 0,-21.855 8.572,-60.17 65.611,-60.17 57.04,0 66.389,38.315 66.389,60.17 V 115"
   id="path138"
   style="stroke:url(#SVGID_7_)" />
		<g
   id="g148">
			<path
   fill="#00aaff"
   d="M 94,124.606 C 94,128.689 90.689,132 86.606,132 H 86.394 C 82.311,132 79,128.689 79,124.606 V 88.394 C 79,84.31 82.311,81 86.394,81 h 0.212 C 90.689,81 94,84.31 94,88.394 Z"
   id="path140" />
			<path
   fill="#00aaff"
   d="m 225,124.606 c 0,4.083 -3.311,7.394 -7.395,7.394 h -0.211 c -4.084,0 -7.395,-3.311 -7.395,-7.394 V 88.394 c 0,-4.083 3.311,-7.394 7.395,-7.394 h 0.211 c 4.084,0 7.395,3.31 7.395,7.394 z"
   id="path142" />
			<path
   fill="#00aaff"
   d="m 76,124.964 c -13,0 -17.429,-8.512 -17.429,-19.013 C 58.571,95.45 63,86.938 76,86.938 Z"
   id="path144" />
			<path
   fill="#00aaff"
   d="m 227,124.964 c 12,0 17.429,-8.512 17.429,-19.013 C 244.429,95.45 239,86.938 227,86.938 Z"
   id="path146" />
		</g>
		<g
   id="g204">
			<g
   id="g202">
				<linearGradient
   id="SVGID_8_"
   gradientUnits="userSpaceOnUse"
   x1="79"
   y1="106.5"
   x2="94"
   y2="106.5">
					<stop
   offset="0.0012"
   style="stop-color:#0063FF"
   id="stop150" />
					<stop
   offset="0.2664"
   style="stop-color:#0082FF;stop-opacity:0.7345"
   id="stop152" />
					<stop
   offset="0.5282"
   style="stop-color:#0098FF;stop-opacity:0.4724"
   id="stop154" />
					<stop
   offset="0.7772"
   style="stop-color:#00A5FF;stop-opacity:0.223"
   id="stop156" />
					<stop
   offset="1"
   style="stop-color:#00AAFF;stop-opacity:0"
   id="stop158" />
				</linearGradient>
				<path
   fill="url(#SVGID_8_)"
   d="M 94,124.606 C 94,128.689 90.689,132 86.606,132 H 86.394 C 82.311,132 79,128.689 79,124.606 V 88.394 C 79,84.31 82.311,81 86.394,81 h 0.212 C 90.689,81 94,84.31 94,88.394 Z"
   id="path161"
   style="fill:url(#SVGID_8_)" />
				<linearGradient
   id="SVGID_9_"
   gradientUnits="userSpaceOnUse"
   x1="210"
   y1="106.5"
   x2="225"
   y2="106.5">
					<stop
   offset="0"
   style="stop-color:#00AAFF;stop-opacity:0"
   id="stop163" />
					<stop
   offset="0.2228"
   style="stop-color:#00A5FF;stop-opacity:0.223"
   id="stop165" />
					<stop
   offset="0.4718"
   style="stop-color:#0098FF;stop-opacity:0.4724"
   id="stop167" />
					<stop
   offset="0.7336"
   style="stop-color:#0082FF;stop-opacity:0.7345"
   id="stop169" />
					<stop
   offset="0.9988"
   style="stop-color:#0063FF"
   id="stop171" />
				</linearGradient>
				<path
   fill="url(#SVGID_9_)"
   d="m 225,124.606 c 0,4.083 -3.311,7.394 -7.395,7.394 h -0.211 c -4.084,0 -7.395,-3.311 -7.395,-7.394 V 88.394 c 0,-4.083 3.311,-7.394 7.395,-7.394 h 0.211 c 4.084,0 7.395,3.31 7.395,7.394 z"
   id="path174"
   style="fill:url(#SVGID_9_)" />
				<linearGradient
   id="SVGID_10_"
   gradientUnits="userSpaceOnUse"
   x1="58.571301"
   y1="105.9512"
   x2="76"
   y2="105.9512">
					<stop
   offset="0"
   style="stop-color:#00AAFF;stop-opacity:0"
   id="stop176" />
					<stop
   offset="0.2228"
   style="stop-color:#00A5FF;stop-opacity:0.223"
   id="stop178" />
					<stop
   offset="0.4718"
   style="stop-color:#0098FF;stop-opacity:0.4724"
   id="stop180" />
					<stop
   offset="0.7336"
   style="stop-color:#0082FF;stop-opacity:0.7345"
   id="stop182" />
					<stop
   offset="0.9988"
   style="stop-color:#0063FF"
   id="stop184" />
				</linearGradient>
				<path
   fill="url(#SVGID_10_)"
   d="m 76,124.964 c -13,0 -17.429,-8.512 -17.429,-19.013 C 58.571,95.45 63,86.938 76,86.938 Z"
   id="path187"
   style="fill:url(#SVGID_10_)" />
				<linearGradient
   id="SVGID_11_"
   gradientUnits="userSpaceOnUse"
   x1="227"
   y1="105.9512"
   x2="244.4287"
   y2="105.9512">
					<stop
   offset="0.0012"
   style="stop-color:#0063FF"
   id="stop189" />
					<stop
   offset="0.2664"
   style="stop-color:#0082FF;stop-opacity:0.7345"
   id="stop191" />
					<stop
   offset="0.5282"
   style="stop-color:#0098FF;stop-opacity:0.4724"
   id="stop193" />
					<stop
   offset="0.7772"
   style="stop-color:#00A5FF;stop-opacity:0.223"
   id="stop195" />
					<stop
   offset="1"
   style="stop-color:#00AAFF;stop-opacity:0"
   id="stop197" />
				</linearGradient>
				<path
   fill="url(#SVGID_11_)"
   d="m 227,124.964 c 12,0 17.429,-8.512 17.429,-19.013 C 244.429,95.45 239,86.938 227,86.938 Z"
   id="path200"
   style="fill:url(#SVGID_11_)" />
			</g>
		</g>
	</g><g
   id="g208">
	</g><g
   id="g210">
	</g><g
   id="g212">
	</g><g
   id="g214">
	</g><g
   id="g216">
	</g><g
   id="g218">
	</g><g
   id="g220">
	</g><g
   id="g222">
	</g><g
   id="g224">
	</g><g
   id="g226">
	</g><g
   id="g228">
	</g><g
   id="g230">
	</g><g
   id="g232">
	</g><g
   id="g234">
	</g><g
   id="g236">
	</g>
</svg>
