<?xml version="1.0" encoding="utf-8"?>
<!-- Generator: Adobe Illustrator 16.0.0, SVG Export Plug-In . SVG Version: 6.00 Build 0)  -->
<!DOCTYPE svg PUBLIC "-//W3C//DTD SVG 1.1//EN" "http://www.w3.org/Graphics/SVG/1.1/DTD/svg11.dtd">
<svg version="1.1" xmlns="http://www.w3.org/2000/svg" xmlns:xlink="http://www.w3.org/1999/xlink" x="0px" y="0px" width="250px"
	 height="250px" viewBox="0 0 250 250" enable-background="new 0 0 250 250" xml:space="preserve">
<g id="background">
	<path fill="#1F1F1F" d="M249,229.529c0,10.753-8.717,19.471-19.471,19.471H20.471C9.718,249,1,240.282,1,229.529V20.471
		C1,9.717,9.718,1,20.471,1h209.058C240.283,1,249,9.717,249,20.471V229.529z"/>
</g>
<g id="logo">
	<linearGradient id="SVGID_1_" gradientUnits="userSpaceOnUse" x1="6.0312" y1="187.1992" x2="142.7266" y2="187.1992">
		<stop  offset="0" style="stop-color:#FF8000;stop-opacity:0"/>
		<stop  offset="0.1645" style="stop-color:#FB7E00;stop-opacity:0.1645"/>
		<stop  offset="0.3317" style="stop-color:#EF7900;stop-opacity:0.3317"/>
		<stop  offset="0.5001" style="stop-color:#DA6F00;stop-opacity:0.5001"/>
		<stop  offset="0.6694" style="stop-color:#BE6200;stop-opacity:0.6694"/>
		<stop  offset="0.8377" style="stop-color:#9A5100;stop-opacity:0.8377"/>
		<stop  offset="1" style="stop-color:#6F3E00"/>
	</linearGradient>
	
		<path display="none" opacity="0.5" fill="none" stroke="url(#SVGID_1_)" stroke-width="4" stroke-linecap="round" stroke-miterlimit="10" d="
		M118.517,172.316L96.859,178H20.091c-6.66,0-12.06,4.734-12.06,11.395s5.399,12.687,12.06,12.687L96.682,202h0.316l43.728-10.61"/>
	<linearGradient id="SVGID_2_" gradientUnits="userSpaceOnUse" x1="6.0312" y1="208.6777" x2="142.7266" y2="208.6777">
		<stop  offset="0" style="stop-color:#FF8000;stop-opacity:0"/>
		<stop  offset="0.1645" style="stop-color:#FB7E00;stop-opacity:0.1645"/>
		<stop  offset="0.3317" style="stop-color:#EF7900;stop-opacity:0.3317"/>
		<stop  offset="0.5001" style="stop-color:#DA6F00;stop-opacity:0.5001"/>
		<stop  offset="0.6694" style="stop-color:#BE6200;stop-opacity:0.6694"/>
		<stop  offset="0.8377" style="stop-color:#9A5100;stop-opacity:0.8377"/>
		<stop  offset="1" style="stop-color:#6F3E00"/>
	</linearGradient>
	
		<path display="none" opacity="0.5" fill="none" stroke="url(#SVGID_2_)" stroke-width="4" stroke-linecap="round" stroke-miterlimit="10" d="
		M140.727,191.202L96.859,202H20.091c-6.66,0-12.06,4.883-12.06,11.542s5.399,12.612,12.06,12.612L96.682,226h0.316l14.717-3.523"/>
	<linearGradient id="SVGID_3_" gradientUnits="userSpaceOnUse" x1="6.0312" y1="165.2139" x2="120.5166" y2="165.2139">
		<stop  offset="0" style="stop-color:#FF8000;stop-opacity:0"/>
		<stop  offset="0.1645" style="stop-color:#FB7E00;stop-opacity:0.1645"/>
		<stop  offset="0.3317" style="stop-color:#EF7900;stop-opacity:0.3317"/>
		<stop  offset="0.5001" style="stop-color:#DA6F00;stop-opacity:0.5001"/>
		<stop  offset="0.6694" style="stop-color:#BE6200;stop-opacity:0.6694"/>
		<stop  offset="0.8377" style="stop-color:#9A5100;stop-opacity:0.8377"/>
		<stop  offset="1" style="stop-color:#6F3E00"/>
	</linearGradient>
	
		<path display="none" opacity="0.5" fill="none" stroke="url(#SVGID_3_)" stroke-width="4" stroke-linecap="round" stroke-miterlimit="10" d="
		M20.091,152.428c-6.66,0-12.06,5.484-12.06,12.145c0,6.658,5.399,13.428,12.06,13.428h76.063h0.317l22.046-5.684"/>
	<path fill="#572E02" d="M113.199,221.484l-15.626,3.959h-0.316l-76.614,0.154c-6.66,0-12.082-5.953-12.082-12.613
		c0-6.658,5.014-11.541,12.014-11.541v0.08c-7,0-12.014-6.025-12.014-12.686s5.444-11.395,12.104-11.395
		c-6.66,0-12.06-6.77-12.06-13.428c0-6.66,5.399-12.145,12.06-12.145l81.072-0.221c0,0,10.556,24.293,40.556,27.918v31.369h-20.719
		C121.574,210.938,113.199,211.692,113.199,221.484z"/>
	<path fill="none" stroke="#FF8000" stroke-width="4" stroke-linecap="round" stroke-miterlimit="10" d="M117.15,173.675L96.859,179
		H20.091c-6.66,0-12.06,4.734-12.06,11.395s5.883,11.129,12.543,11.129L96.682,202h0.316l43.251-11.156"/>
	<g>
		<path fill="#FF8000" d="M113.234,221.453c0,0.611-0.404,2.154-1.479,2.412l-14.946,3.578h-0.553l-76.588,0.154
			c-7.625,0-14.063-6.691-14.063-14.613c0-7.594,6.176-13.541,14.06-13.541h76.526l46.102-11.219v4.125l-45.616,11.094H19.665
			c-5.734,0-10.06,4.102-10.06,9.541c0,5.754,4.607,10.613,10.06,10.613l76.672-0.154l16.971-4.092L113.234,221.453z"/>
	</g>
	<g>
		<path fill="#FF8000" d="M123.982,174.035L96.724,181H20.091c-7.49,0-14.06-7.209-14.06-15.428c0-7.8,6.307-14.347,14.06-14.347
			l76.729-1.727c0.009,0,0.019,0,0.027,0c1.092,0,1.985,1.08,2,2.176c0.015,1.104-0.869,2.113-1.973,2.127l-76.755,1.575
			c-5.574,0-10.086,4.576-10.086,10.17c0,5.284,4.394,11.453,10.06,11.453h76.126l22.76-5.877
			C118.978,171.123,122.285,173.122,123.982,174.035z"/>
	</g>
	<g>
		<path fill="#FF8000" d="M47.527,165.943h-28c-0.828,0-1.5-0.422-1.5-1.25s0.719-1.25,1.547-1.25h28
			c0.829,0,1.453,0.422,1.453,1.25S48.356,165.943,47.527,165.943z"/>
	</g>
	<path fill="#FF8000" d="M95.409,135.811H72.693l-60.684,18h85.249l5.06-1.17C99.185,147.51,96.828,141.811,95.409,135.811z"/>
	<linearGradient id="SVGID_4_" gradientUnits="userSpaceOnUse" x1="12.0098" y1="144.8105" x2="102.3184" y2="144.8105">
		<stop  offset="0" style="stop-color:#FF8000;stop-opacity:0"/>
		<stop  offset="0.1645" style="stop-color:#FB7E00;stop-opacity:0.1645"/>
		<stop  offset="0.3317" style="stop-color:#EF7900;stop-opacity:0.3317"/>
		<stop  offset="0.5001" style="stop-color:#DA6F00;stop-opacity:0.5001"/>
		<stop  offset="0.6694" style="stop-color:#BE6200;stop-opacity:0.6694"/>
		<stop  offset="0.8377" style="stop-color:#9A5100;stop-opacity:0.8377"/>
		<stop  offset="1" style="stop-color:#6F3E00"/>
	</linearGradient>
	<path opacity="0.5" fill="url(#SVGID_4_)" d="M95.409,135.811H72.693l-60.684,18h85.249l5.06-1.17
		C99.185,147.51,96.828,141.811,95.409,135.811z"/>
	<g>
		<g>
			<path fill="#00AAFF" d="M190.035,161.84c9.867-9.867,15.484-22.986,15.484-36.939c0-3.079-2.403-5.575-5.482-5.575
				c-3.078,0-5.529,2.496-5.529,5.575c0,10.976-4.251,21.299-12.012,29.061c-7.762,7.76-18.058,12.039-29.033,12.039h-0.606
				c-10.976,0-21.294-4.279-29.056-12.039c-7.761-7.762-12.035-18.083-12.035-29.059c0-3.078-2.497-5.576-5.575-5.576
				c-3.078,0-5.574,2.496-5.574,5.574c0,13.953,5.142,27.072,15.008,36.939c8.615,8.613,19.375,13.848,31.375,15.038V215h-24.188
				c-3.079,0-5.575,2.922-5.575,6s2.496,6,5.574,6h60.697c3.078,0,5.574-2.922,5.574-6s-2.496-6-5.574-6H158v-38.122
				C171,175.688,181.422,170.453,190.035,161.84z"/>
			<path fill="#00AAFF" d="M166.607,121.535v-7.12h16.229v-7.166h-16.229v-7.119h16.229v-7.166h-16.229v-7.119h16.229v-7.166
				h-16.229v-7.119h16.229v-1.316c0-16.594-13.451-30.045-30.045-30.045h-0.606c-16.594,0-30.044,13.451-30.044,30.045v1.316h16.228
				v7.118h-16.228v7.167h16.228v7.119h-16.228v7.166h16.228v7.119h-16.228v7.166h16.228v7.12h-16.228v1.807
				c0,16.594,13.45,30.045,30.044,30.045h0.606c16.594,0,30.045-13.451,30.045-30.045v-1.807H166.607z"/>
		</g>
		<g>
			<linearGradient id="SVGID_5_" gradientUnits="userSpaceOnUse" x1="100.6162" y1="173.1631" x2="205.5195" y2="173.1631">
				<stop  offset="0" style="stop-color:#00AAFF;stop-opacity:0"/>
				<stop  offset="0.9988" style="stop-color:#0063FF"/>
			</linearGradient>
			<path fill="url(#SVGID_5_)" d="M190.035,161.84c9.867-9.867,15.484-22.986,15.484-36.939c0-3.079-2.403-5.575-5.482-5.575
				c-3.078,0-5.529,2.496-5.529,5.575c0,10.976-4.251,21.299-12.012,29.061c-7.762,7.76-18.058,12.039-29.033,12.039h-0.606
				c-10.976,0-21.294-4.279-29.056-12.039c-7.761-7.762-12.035-18.083-12.035-29.059c0-3.078-2.497-5.576-5.575-5.576
				c-3.078,0-5.574,2.496-5.574,5.574c0,13.953,5.142,27.072,15.008,36.939c8.615,8.613,19.375,13.848,31.375,15.038V215h-24.188
				c-3.079,0-5.575,2.922-5.575,6s2.496,6,5.574,6h60.697c3.078,0,5.574-2.922,5.574-6s-2.496-6-5.574-6H158v-38.122
				C171,175.688,181.422,170.453,190.035,161.84z"/>
			<linearGradient id="SVGID_6_" gradientUnits="userSpaceOnUse" x1="122.1406" y1="96.792" x2="182.8359" y2="96.792">
				<stop  offset="0" style="stop-color:#00AAFF;stop-opacity:0"/>
				<stop  offset="0.9988" style="stop-color:#0063FF"/>
			</linearGradient>
			<path fill="url(#SVGID_6_)" d="M166.607,121.535v-7.12h16.229v-7.166h-16.229v-7.119h16.229v-7.166h-16.229v-7.119h16.229v-7.166
				h-16.229v-7.119h16.229v-1.316c0-16.594-13.451-30.045-30.045-30.045h-0.606c-16.594,0-30.044,13.451-30.044,30.045v1.316h16.228
				v7.118h-16.228v7.167h16.228v7.119h-16.228v7.166h16.228v7.119h-16.228v7.166h16.228v7.12h-16.228v1.807
				c0,16.594,13.45,30.045,30.044,30.045h0.606c16.594,0,30.045-13.451,30.045-30.045v-1.807H166.607z"/>
		</g>
	</g>
	<g>
		<path fill="none" stroke="#00AAFF" stroke-width="8" stroke-miterlimit="10" d="M86,116V86.579c0-21.855,8.572-60.17,65.611-60.17
			c57.04,0,66.389,38.315,66.389,60.17V116"/>
		<linearGradient id="SVGID_7_" gradientUnits="userSpaceOnUse" x1="82" y1="69.2046" x2="222" y2="69.2046">
			<stop  offset="0" style="stop-color:#0063FF"/>
			<stop  offset="0.0182" style="stop-color:#006FFF;stop-opacity:0.9637"/>
			<stop  offset="0.0605" style="stop-color:#0085FF;stop-opacity:0.879"/>
			<stop  offset="0.1105" style="stop-color:#0096FF;stop-opacity:0.779"/>
			<stop  offset="0.1723" style="stop-color:#00A1FF;stop-opacity:0.6553"/>
			<stop  offset="0.2591" style="stop-color:#00A8FF;stop-opacity:0.4818"/>
			<stop  offset="0.5" style="stop-color:#00AAFF;stop-opacity:0"/>
			<stop  offset="0.7409" style="stop-color:#00A8FF;stop-opacity:0.4818"/>
			<stop  offset="0.8277" style="stop-color:#00A1FF;stop-opacity:0.6553"/>
			<stop  offset="0.8895" style="stop-color:#0096FF;stop-opacity:0.779"/>
			<stop  offset="0.9395" style="stop-color:#0085FF;stop-opacity:0.879"/>
			<stop  offset="0.9818" style="stop-color:#006FFF;stop-opacity:0.9637"/>
			<stop  offset="1" style="stop-color:#0063FF"/>
		</linearGradient>
		<path fill="none" stroke="url(#SVGID_7_)" stroke-width="8" stroke-miterlimit="10" d="M86,116V86.579
			c0-21.855,8.572-60.17,65.611-60.17c57.04,0,66.389,38.315,66.389,60.17V116"/>
		<g>
			<path fill="#00AAFF" d="M94,125.606c0,4.083-3.311,7.394-7.394,7.394h-0.212c-4.083,0-7.394-3.311-7.394-7.394V89.394
				C79,85.31,82.311,82,86.394,82h0.212C90.689,82,94,85.31,94,89.394V125.606z"/>
			<path fill="#00AAFF" d="M225,125.606c0,4.083-3.311,7.394-7.395,7.394h-0.211c-4.084,0-7.395-3.311-7.395-7.394V89.394
				c0-4.083,3.311-7.394,7.395-7.394h0.211c4.084,0,7.395,3.31,7.395,7.394V125.606z"/>
			<path fill="#00AAFF" d="M76,125.964c-13,0-17.429-8.512-17.429-19.013S63,87.938,76,87.938V125.964z"/>
			<path fill="#00AAFF" d="M227,125.964c12,0,17.429-8.512,17.429-19.013S239,87.938,227,87.938V125.964z"/>
		</g>
		<g>
			<g>
				<linearGradient id="SVGID_8_" gradientUnits="userSpaceOnUse" x1="79" y1="107.5" x2="94" y2="107.5">
					<stop  offset="0.0012" style="stop-color:#0063FF"/>
					<stop  offset="0.2664" style="stop-color:#0082FF;stop-opacity:0.7345"/>
					<stop  offset="0.5282" style="stop-color:#0098FF;stop-opacity:0.4724"/>
					<stop  offset="0.7772" style="stop-color:#00A5FF;stop-opacity:0.223"/>
					<stop  offset="1" style="stop-color:#00AAFF;stop-opacity:0"/>
				</linearGradient>
				<path fill="url(#SVGID_8_)" d="M94,125.606c0,4.083-3.311,7.394-7.394,7.394h-0.212c-4.083,0-7.394-3.311-7.394-7.394V89.394
					C79,85.31,82.311,82,86.394,82h0.212C90.689,82,94,85.31,94,89.394V125.606z"/>
				<linearGradient id="SVGID_9_" gradientUnits="userSpaceOnUse" x1="210" y1="107.5" x2="225" y2="107.5">
					<stop  offset="0" style="stop-color:#00AAFF;stop-opacity:0"/>
					<stop  offset="0.2228" style="stop-color:#00A5FF;stop-opacity:0.223"/>
					<stop  offset="0.4718" style="stop-color:#0098FF;stop-opacity:0.4724"/>
					<stop  offset="0.7336" style="stop-color:#0082FF;stop-opacity:0.7345"/>
					<stop  offset="0.9988" style="stop-color:#0063FF"/>
				</linearGradient>
				<path fill="url(#SVGID_9_)" d="M225,125.606c0,4.083-3.311,7.394-7.395,7.394h-0.211c-4.084,0-7.395-3.311-7.395-7.394V89.394
					c0-4.083,3.311-7.394,7.395-7.394h0.211c4.084,0,7.395,3.31,7.395,7.394V125.606z"/>
				<linearGradient id="SVGID_10_" gradientUnits="userSpaceOnUse" x1="58.5713" y1="106.9512" x2="76" y2="106.9512">
					<stop  offset="0" style="stop-color:#00AAFF;stop-opacity:0"/>
					<stop  offset="0.2228" style="stop-color:#00A5FF;stop-opacity:0.223"/>
					<stop  offset="0.4718" style="stop-color:#0098FF;stop-opacity:0.4724"/>
					<stop  offset="0.7336" style="stop-color:#0082FF;stop-opacity:0.7345"/>
					<stop  offset="0.9988" style="stop-color:#0063FF"/>
				</linearGradient>
				<path fill="url(#SVGID_10_)" d="M76,125.964c-13,0-17.429-8.512-17.429-19.013S63,87.938,76,87.938V125.964z"/>
				<linearGradient id="SVGID_11_" gradientUnits="userSpaceOnUse" x1="227" y1="106.9512" x2="244.4287" y2="106.9512">
					<stop  offset="0.0012" style="stop-color:#0063FF"/>
					<stop  offset="0.2664" style="stop-color:#0082FF;stop-opacity:0.7345"/>
					<stop  offset="0.5282" style="stop-color:#0098FF;stop-opacity:0.4724"/>
					<stop  offset="0.7772" style="stop-color:#00A5FF;stop-opacity:0.223"/>
					<stop  offset="1" style="stop-color:#00AAFF;stop-opacity:0"/>
				</linearGradient>
				<path fill="url(#SVGID_11_)" d="M227,125.964c12,0,17.429-8.512,17.429-19.013S239,87.938,227,87.938V125.964z"/>
			</g>
		</g>
	</g>
	<g>
		<path fill="#FF8000" d="M88.491,191.193H20.569c-0.829,0-1.5-0.422-1.5-1.25s0.718-1.25,1.547-1.25h67.922
			c0.828,0,1.453,0.422,1.453,1.25S89.319,191.193,88.491,191.193z"/>
	</g>
	<g>
		<path fill="#FF8000" d="M62.533,214.193H20.611c-0.829,0-1.5-0.422-1.5-1.25s0.718-1.25,1.547-1.25H62.58
			c0.828,0,1.453,0.422,1.453,1.25S63.361,214.193,62.533,214.193z"/>
	</g>
	<g>
	</g>
	<g>
	</g>
	<g>
	</g>
	<g>
	</g>
	<g>
	</g>
	<g>
	</g>
	<g>
	</g>
	<g>
	</g>
	<g>
	</g>
	<g>
	</g>
	<g>
	</g>
	<g>
	</g>
	<g>
	</g>
	<g>
	</g>
	<g>
	</g>
</g>
</svg>
