<?xml version="1.0" encoding="UTF-8" standalone="no"?>
<!-- Created with Inkscape (http://www.inkscape.org/) -->

<svg
   width="32"
   height="32"
   viewBox="0 0 8.4666667 8.4666667"
   version="1.1"
   id="svg5"
   xml:space="preserve"
   inkscape:version="1.2.2 (732a01da63, 2022-12-09)"
   sodipodi:docname="RecordAdd.svg"
   xmlns:inkscape="http://www.inkscape.org/namespaces/inkscape"
   xmlns:sodipodi="http://sodipodi.sourceforge.net/DTD/sodipodi-0.dtd"
   xmlns:xlink="http://www.w3.org/1999/xlink"
   xmlns="http://www.w3.org/2000/svg"
   xmlns:svg="http://www.w3.org/2000/svg"><sodipodi:namedview
     id="namedview7"
     pagecolor="#505050"
     bordercolor="#eeeeee"
     borderopacity="1"
     inkscape:showpageshadow="0"
     inkscape:pageopacity="0"
     inkscape:pagecheckerboard="0"
     inkscape:deskcolor="#505050"
     inkscape:document-units="mm"
     showgrid="false"
     inkscape:zoom="5.6568543"
     inkscape:cx="19.887378"
     inkscape:cy="19.710601"
     inkscape:window-width="1280"
     inkscape:window-height="961"
     inkscape:window-x="-8"
     inkscape:window-y="-8"
     inkscape:window-maximized="1"
     inkscape:current-layer="svg5" /><defs
     id="defs2"><radialGradient
       inkscape:collect="always"
       xlink:href="#linearGradient2003"
       id="radialGradient2005"
       cx="19.136818"
       cy="6.0068684"
       fx="19.136818"
       fy="6.0068684"
       r="2.2632511"
       gradientUnits="userSpaceOnUse"
       gradientTransform="translate(-13.009664,-3.6156419)" /><linearGradient
       inkscape:collect="always"
       id="linearGradient2003"><stop
         style="stop-color:#c1e6f2;stop-opacity:1;"
         offset="0.15047024"
         id="stop1999" /><stop
         style="stop-color:#5dcad9;stop-opacity:1;"
         offset="1"
         id="stop2001" /></linearGradient></defs><path
     id="path2739"
     style="display:inline;fill:#56e2aa;fill-opacity:1;fill-rule:evenodd;stroke:#000000;stroke-width:0.4;stroke-linecap:butt;stroke-linejoin:miter;stroke-opacity:0.29535866;stroke-dasharray:none;paint-order:stroke fill markers"
     d="M 4.4198853,0.54208577 C 4.4140494,0.54218074 3.0788497,0.58699775 2.3218221,1.2516032 1.8497468,1.6660449 1.436496,2.4678833 1.3317017,2.9533081 1.3228189,3.008295 1.2976792,3.0904276 1.2991455,3.1610474 l 0.00362,2.8582234 0.6469889,0.4278809 1.1916585,0.00362 c 0,0 0.07284,-0.00995 0.1069702,-0.043925 0.034126,-0.03398 0.042892,-0.094568 0.042892,-0.094568 l 0.00103,-1.7890381 c 0,0 0.011669,-0.1326787 -0.041858,-0.1870687 -0.053527,-0.054386 -0.1255737,-0.05581 -0.1255737,-0.05581 L 2.0200317,4.2684733 c 0,0 -0.017873,-1.0128323 -0.00103,-1.0981242 C 2.0358385,3.0850577 2.3912859,2.244897 2.7393677,1.876888 3.2774232,1.3080298 4.4111876,1.2243335 4.4198853,1.2236979 c 0,0 -9.395e-4,-1.056e-4 5.167e-4,0 0.00146,1.055e-4 1.1426321,0.082873 1.6820679,0.6531901 0.3480817,0.368009 0.7030124,1.2081697 0.7198527,1.2934611 0.01684,0.085292 -0.00103,1.0981242 -0.00103,1.0981242 l -1.1048422,0.011886 c 0,0 -0.071531,0.00142 -0.1250569,0.05581 -0.053527,0.05439 -0.041858,0.1870687 -0.041858,0.1870687 l 5.167e-4,1.7890381 c 0,0 0.00928,0.060588 0.043408,0.094568 0.03413,0.03398 0.1069702,0.043925 0.1069702,0.043925 l 1.1213786,-0.00362 -0.00258,0.4351156 -0.2222087,0.2609659 -2.0985799,-0.0093 c 0,0 -0.1176725,0.08006 -0.1193725,0.3570841 -0.0017,0.2770244 0.1085205,0.3576009 0.1085205,0.3576009 l 2.4463623,-0.00723 0.5803263,-0.7002156 0.019637,-1.1187948 0.00465,-0.0031 0.00362,-2.8582234 C 7.543642,3.0904311 7.5185019,3.008295 7.5096191,2.9533081 7.4048248,2.4678833 6.991574,1.6660449 6.5194987,1.2516032 5.7608101,0.58553952 4.4257212,0.5419908 4.4198853,0.54208577 Z"
     sodipodi:nodetypes="zscccccccccccssczsscccccccccccccccccccsz" /><path
     id="rect589"
     style="fill:url(#radialGradient2005);fill-opacity:1;stroke:#003536;stroke-width:0.2;stroke-linecap:round;stroke-linejoin:round;stroke-dasharray:none;stroke-opacity:0.607595;paint-order:stroke fill markers"
     d="M 5.5722299,0.17947608 V 1.8129173 h -1.656827 v 1.1332334 h 1.656827 v 1.6568274 l 1.12154,-0.01169 V 2.9344577 l 1.645135,0.01169 V 1.8129173 L 6.6937699,1.8012242 V 0.16778308 Z"
     sodipodi:nodetypes="ccccccccccccc" /></svg>
