<?xml version="1.0" encoding="UTF-8" standalone="no"?>
<!-- Created with Inkscape (http://www.inkscape.org/) -->

<svg
   width="32"
   height="32"
   viewBox="0 0 8.4666666 8.4666666"
   version="1.1"
   id="svg1517"
   inkscape:version="1.2.2 (732a01da63, 2022-12-09)"
   sodipodi:docname="SectionImportRecord.svg"
   xml:space="preserve"
   xmlns:inkscape="http://www.inkscape.org/namespaces/inkscape"
   xmlns:sodipodi="http://sodipodi.sourceforge.net/DTD/sodipodi-0.dtd"
   xmlns:xlink="http://www.w3.org/1999/xlink"
   xmlns="http://www.w3.org/2000/svg"
   xmlns:svg="http://www.w3.org/2000/svg"><sodipodi:namedview
     id="namedview1519"
     pagecolor="#505050"
     bordercolor="#eeeeee"
     borderopacity="1"
     inkscape:showpageshadow="0"
     inkscape:pageopacity="0"
     inkscape:pagecheckerboard="0"
     inkscape:deskcolor="#505050"
     inkscape:document-units="mm"
     showgrid="false"
     inkscape:zoom="3.3638608"
     inkscape:cx="20.660784"
     inkscape:cy="23.336281"
     inkscape:window-width="1280"
     inkscape:window-height="961"
     inkscape:window-x="-8"
     inkscape:window-y="-8"
     inkscape:window-maximized="1"
     inkscape:current-layer="layer2" /><defs
     id="defs1514"><linearGradient
       inkscape:collect="always"
       id="linearGradient92837"><stop
         style="stop-color:#d1e2fd;stop-opacity:1;"
         offset="0"
         id="stop92833" /><stop
         style="stop-color:#4da1f7;stop-opacity:1;"
         offset="0.59874606"
         id="stop92835" /></linearGradient><linearGradient
       inkscape:collect="always"
       id="linearGradient68772"><stop
         style="stop-color:#ffeaa6;stop-opacity:1;"
         offset="0"
         id="stop68768" /><stop
         style="stop-color:#e6c062;stop-opacity:1;"
         offset="1"
         id="stop68770" /></linearGradient><linearGradient
       inkscape:collect="always"
       id="linearGradient63029"><stop
         style="stop-color:#ffe9a3;stop-opacity:1;"
         offset="0"
         id="stop63025" /><stop
         style="stop-color:#e4bb5b;stop-opacity:1;"
         offset="1"
         id="stop63027" /></linearGradient><linearGradient
       inkscape:collect="always"
       xlink:href="#linearGradient63029"
       id="linearGradient63031"
       x1="4.6167316"
       y1="3.9827025"
       x2="4.5860519"
       y2="7.9940901"
       gradientUnits="userSpaceOnUse"
       gradientTransform="translate(-0.13142738,-1.1128743)" /><linearGradient
       inkscape:collect="always"
       xlink:href="#linearGradient68772"
       id="linearGradient68774"
       x1="2.361063"
       y1="2.3917468"
       x2="2.338594"
       y2="4.3383508"
       gradientUnits="userSpaceOnUse"
       gradientTransform="translate(-0.13142738,-1.1128743)" /><linearGradient
       inkscape:collect="always"
       xlink:href="#linearGradient92837"
       id="linearGradient92839"
       x1="13.327082"
       y1="4.7451563"
       x2="13.356017"
       y2="8.2212343"
       gradientUnits="userSpaceOnUse"
       gradientTransform="translate(-9.9154034,0.11798199)" /></defs><g
     inkscape:groupmode="layer"
     id="layer2"
     inkscape:label="Calque 2"><g
       id="g71389"
       transform="translate(-0.03207417)"><path
         style="fill:url(#linearGradient68774);fill-opacity:1;fill-rule:evenodd;stroke:#d98a30;stroke-width:0.6;stroke-linecap:butt;stroke-linejoin:miter;stroke-dasharray:none;stroke-opacity:1;paint-order:stroke fill markers"
         d="M 0.43864939,7.1063117 V 1.3481888 H 2.9553298 l 0.632646,0.632646 H 7.2239532 L 7.174794,7.1045735 Z"
         id="path62631"
         sodipodi:nodetypes="ccccccc" /><path
         style="fill:url(#linearGradient63031);fill-opacity:1;fill-rule:evenodd;stroke:#d98a30;stroke-width:0.6;stroke-linecap:butt;stroke-linejoin:miter;stroke-dasharray:none;stroke-opacity:1;paint-order:stroke fill markers"
         d="m 1.272908,2.9471847 h 6.7574952 l -0.80645,4.1712932 H 0.49774271 Z"
         id="path63000"
         sodipodi:nodetypes="ccccc" /></g><path
       id="path2739"
       style="display:inline;fill:#56e2aa;fill-opacity:1;fill-rule:evenodd;stroke:#000000;stroke-width:0.206;stroke-linecap:butt;stroke-linejoin:miter;stroke-dasharray:none;stroke-opacity:0.50210971;paint-order:normal"
       d="M 4.2325333,0.16504224 C 4.226525,0.16513989 2.8517546,0.21128459 2.0722916,0.89558691 1.5862258,1.3223111 1.1607278,2.1479129 1.052828,2.6477238 c -0.00914,0.056617 -0.03503,0.1411828 -0.03352,0.213896 l 0.00372,2.94293 0.6661632,0.4405617 1.2269748,0.00372 c 0,0 0.074999,-0.010247 0.110141,-0.045227 0.035138,-0.034987 0.044162,-0.09737 0.044162,-0.09737 l 0.00106,-1.842062 c 0,0 0.012008,-0.1366107 -0.043098,-0.1926129 C 2.9733167,4.0155636 2.8991357,4.0140989 2.8991357,4.0140989 L 1.7615503,4.0018642 c 0,0 -0.018404,-1.0428487 -0.00106,-1.1306683 C 1.7778333,2.7833769 2.1438069,1.918317 2.5022046,1.5394015 3.0562059,0.95368451 4.2235708,0.86750781 4.2325262,0.86685341 c 0,0 -9.674e-4,-1.088e-4 5.321e-4,0 0.0015,1.085e-4 1.1764953,0.085329 1.7319179,0.67254809 0.3583975,0.3789155 0.7238469,1.2439753 0.7411864,1.3317944 0.017343,0.087819 -0.00106,1.1306683 -0.00106,1.1306683 l -1.1375855,0.012234 c 0,0 -0.073651,0.00146 -0.1287628,0.057463 -0.055114,0.056002 -0.0431,0.1926126 -0.0431,0.1926126 l 5.321e-4,1.8420584 c 0,0 0.00956,0.062383 0.044694,0.09737 0.035142,0.034987 0.110141,0.045227 0.110141,0.045227 L 6.7056332,6.2451092 6.7029832,6.69312 6.4741891,6.9618198 4.3134153,6.9522498 c 0,0 -0.12116,0.082433 -0.12291,0.3676667 -0.00176,0.285234 0.1117367,0.3681993 0.1117367,0.3681993 l 2.518863,-0.00747 0.5975249,-0.7209678 0.020219,-1.1519517 0.00478,-0.00319 0.00373,-2.9429302 C 7.4488663,2.7889106 7.4229811,2.7043403 7.413835,2.6477238 7.3059351,2.1479129 6.8804371,1.3223111 6.3943713,0.89558691 5.6131982,0.20978368 4.2385422,0.16494436 4.2325333,0.16504224 Z"
       sodipodi:nodetypes="zscccccccccccssczsscccccccccccccccccccsz" /><path
       style="fill:url(#linearGradient92839);fill-opacity:1;fill-rule:evenodd;stroke:#032691;stroke-width:0.264583px;stroke-linecap:butt;stroke-linejoin:miter;stroke-opacity:1"
       d="M 3.3215006,8.2659085 H 0.23474357 V 5.1513428 L 1.3470886,6.2636876 c 0,0 0.74486,-1.0915512 2.725245,-1.1957709 1.980385,-0.1042197 3.253609,2.5305848 3.253609,2.5305848 0,0 -0.922133,-1.1823103 -2.780862,-1.1679623 -1.858729,0.014348 -2.252499,0.8064502 -2.252499,0.8064502 z"
       id="path84993"
       sodipodi:nodetypes="cccczczcc" /></g><g
     inkscape:label="Calque 1"
     inkscape:groupmode="layer"
     id="layer1" /></svg>
