<?xml version="1.0" encoding="UTF-8" standalone="no"?>
<!-- Created with Inkscape (http://www.inkscape.org/) -->

<svg
   width="32"
   height="32"
   viewBox="0 0 8.4666667 8.4666667"
   version="1.1"
   id="svg5"
   xml:space="preserve"
   inkscape:version="1.2.2 (732a01da63, 2022-12-09)"
   sodipodi:docname="SectionMix.svg"
   xmlns:inkscape="http://www.inkscape.org/namespaces/inkscape"
   xmlns:sodipodi="http://sodipodi.sourceforge.net/DTD/sodipodi-0.dtd"
   xmlns:xlink="http://www.w3.org/1999/xlink"
   xmlns="http://www.w3.org/2000/svg"
   xmlns:svg="http://www.w3.org/2000/svg"><sodipodi:namedview
     id="namedview7"
     pagecolor="#505050"
     bordercolor="#eeeeee"
     borderopacity="1"
     inkscape:showpageshadow="0"
     inkscape:pageopacity="0"
     inkscape:pagecheckerboard="0"
     inkscape:deskcolor="#505050"
     inkscape:document-units="mm"
     showgrid="false"
     inkscape:zoom="16"
     inkscape:cx="17.71875"
     inkscape:cy="18.71875"
     inkscape:window-width="1280"
     inkscape:window-height="961"
     inkscape:window-x="-8"
     inkscape:window-y="-8"
     inkscape:window-maximized="1"
     inkscape:current-layer="svg5" /><defs
     id="defs2"><linearGradient
       inkscape:collect="always"
       id="linearGradient5198"><stop
         style="stop-color:#c1e6f2;stop-opacity:1;"
         offset="0.14733543"
         id="stop5194" /><stop
         style="stop-color:#5dcad9;stop-opacity:1;"
         offset="1"
         id="stop5196" /></linearGradient><radialGradient
       inkscape:collect="always"
       xlink:href="#linearGradient5198"
       id="radialGradient5200"
       cx="5.7463661"
       cy="4.6632812"
       fx="5.7463661"
       fy="4.6632812"
       r="2.6540483"
       gradientTransform="matrix(1,0,0,1.2585922,-0.5953125,-1.205888)"
       gradientUnits="userSpaceOnUse" /></defs><path
     id="path2739"
     style="display:inline;fill:#56e2aa;fill-opacity:1;fill-rule:evenodd;stroke:#000000;stroke-width:0.320435;stroke-linecap:butt;stroke-linejoin:miter;stroke-dasharray:none;stroke-opacity:0.303797;paint-order:stroke fill markers"
     d="m 1.5979856,5.7810001 c -0.00231,3.28e-5 -0.5302938,0.015489 -0.82964978,0.2446871 -0.1866756,0.1429261 -0.35008989,0.4194513 -0.39152931,0.5868569 -0.003512,0.018963 -0.013454,0.047288 -0.0128742,0.071641 l 0.001429,0.9856986 0.25584277,0.1475607 0.47122482,0.00125 c 0,0 0.028804,-0.00343 0.042301,-0.015148 0.013494,-0.011718 0.016961,-0.032613 0.016961,-0.032613 l 4.075e-4,-0.616975 c 0,0 0.00461,-0.045757 -0.016551,-0.064513 -0.021166,-0.018756 -0.049656,-0.019246 -0.049656,-0.019246 l -0.43689431,-0.0041 c 0,0 -0.007067,-0.3492894 -4.0732e-4,-0.3787037 C 0.65524173,6.65798 0.79580184,6.3682391 0.93344593,6.241326 1.146215,6.0451466 1.5945464,6.0162828 1.5979856,6.0160637 c 0,0 -3.713e-4,-3.64e-5 2.045e-4,0 5.773e-4,3.63e-5 0.4518379,0.02858 0.6651504,0.2252616 0.137644,0.1269132 0.2779964,0.4166544 0.2846557,0.4460683 0.00666,0.029415 -4.073e-4,0.3787036 -4.073e-4,0.3787036 l -0.4368945,0.0041 c 0,0 -0.028285,4.898e-4 -0.049452,0.019246 -0.021166,0.018758 -0.016551,0.064513 -0.016551,0.064513 l 2.043e-4,0.6169748 c 0,0 0.00367,0.020894 0.017165,0.032613 0.013496,0.011718 0.042301,0.015148 0.042301,0.015148 l 0.4434335,-0.00125 -0.00102,0.1500556 -0.08787,0.089998 -0.8298543,-0.00321 c 0,0 -0.046533,0.027609 -0.047204,0.1231455 -6.722e-4,0.095536 0.042912,0.1233237 0.042912,0.1233237 l 0.96738,-0.00249 0.2294819,-0.2414791 0.00777,-0.3858321 0.00184,-0.00107 0.00143,-0.9856986 C 2.8332343,6.6598332 2.8232902,6.6315078 2.81978,6.6125446 2.7783386,6.4451385 2.6149242,6.1686133 2.4282487,6.0256872 2.1282359,5.7959858 1.6002934,5.7809673 1.5979856,5.7810001 Z"
     sodipodi:nodetypes="zscccccccccccssczsscccccccccccccccccccsz" /><path
     id="path307"
     style="display:inline;fill:#56e2aa;fill-opacity:1;fill-rule:evenodd;stroke:#000000;stroke-width:0.320435;stroke-linecap:butt;stroke-linejoin:miter;stroke-dasharray:none;stroke-opacity:0.303797;paint-order:stroke fill markers"
     d="m 1.5979856,2.9934023 c -0.00231,3.27e-5 -0.5302938,0.015489 -0.82964978,0.244687 -0.1866756,0.1429261 -0.35008989,0.4194514 -0.39152931,0.5868569 -0.003512,0.018963 -0.013454,0.047288 -0.0128742,0.071641 l 0.001429,0.9856986 0.25584277,0.1475606 0.47122482,0.00125 c 0,0 0.028804,-0.00343 0.042301,-0.015148 0.013494,-0.011718 0.016961,-0.032613 0.016961,-0.032613 l 4.075e-4,-0.616975 c 0,0 0.00461,-0.045756 -0.016551,-0.064513 -0.021166,-0.018756 -0.049656,-0.019246 -0.049656,-0.019246 l -0.43689431,-0.0041 c 0,0 -0.007067,-0.3492894 -4.0732e-4,-0.3787036 0.006654,-0.029413 0.14721374,-0.319154 0.28485783,-0.446067 0.2127674,-0.196182 0.6610988,-0.2250458 0.664538,-0.225265 0,0 -3.713e-4,-3.64e-5 2.045e-4,0 5.773e-4,3.64e-5 0.4518379,0.02858 0.6651504,0.2252617 0.137644,0.1269131 0.2779964,0.4166544 0.2846557,0.4460683 0.00666,0.029415 -4.073e-4,0.3787036 -4.073e-4,0.3787036 l -0.4368945,0.0041 c 0,0 -0.028285,4.897e-4 -0.049452,0.019246 -0.021166,0.018758 -0.016551,0.064513 -0.016551,0.064513 l 2.043e-4,0.6169748 c 0,0 0.00367,0.020894 0.017165,0.032613 0.013496,0.011719 0.042301,0.015148 0.042301,0.015148 l 0.4434335,-0.00125 -0.00102,0.1500557 -0.08787,0.089998 -0.8298543,-0.00321 c 0,0 -0.046533,0.027609 -0.047204,0.1231455 -6.722e-4,0.095536 0.042912,0.1233237 0.042912,0.1233237 l 0.96738,-0.00249 0.2294819,-0.2414791 0.00777,-0.3858321 0.00184,-0.00107 0.00143,-0.9856986 C 2.8332343,3.8722354 2.8232902,3.8439099 2.81978,3.8249468 2.7783386,3.6575407 2.6149242,3.3810154 2.4282487,3.2380893 2.1282359,3.008388 1.6002934,2.9933695 1.5979856,2.9934023 Z"
     sodipodi:nodetypes="zscccccccccccssczsscccccccccccccccccccsz" /><path
     id="path309"
     style="display:inline;fill:#56e2aa;fill-opacity:1;fill-rule:evenodd;stroke:#000000;stroke-width:0.320435;stroke-linecap:butt;stroke-linejoin:miter;stroke-dasharray:none;stroke-opacity:0.303797;paint-order:stroke fill markers"
     d="m 1.5979856,0.20580446 c -0.00231,3.271e-5 -0.5302938,0.0154889 -0.82964978,0.24468702 -0.1866756,0.14292608 -0.35008989,0.41945131 -0.39152931,0.58685692 -0.003512,0.018963 -0.013454,0.047288 -0.0128742,0.071641 l 0.001429,0.9856985 0.25584277,0.1475607 0.47122482,0.00125 c 0,0 0.028804,-0.00343 0.042301,-0.015148 0.013494,-0.011718 0.016961,-0.032613 0.016961,-0.032613 l 4.075e-4,-0.6169751 c 0,0 0.00461,-0.045756 -0.016551,-0.064513 -0.021166,-0.018756 -0.049656,-0.019246 -0.049656,-0.019246 l -0.43689431,-0.0041 c 0,0 -0.007067,-0.3492894 -4.0732e-4,-0.3787036 C 0.65524133,1.0827847 0.79580184,0.79304337 0.93344593,0.66613035 1.146215,0.46995094 1.5945464,0.44108713 1.5979856,0.44086798 c 0,0 -3.713e-4,-3.641e-5 2.045e-4,0 5.773e-4,3.631e-5 0.4518379,0.0285798 0.6651504,0.22526167 0.137644,0.12691313 0.2779964,0.41665445 0.2846557,0.44606835 0.00666,0.029415 -4.073e-4,0.3787036 -4.073e-4,0.3787036 l -0.4368945,0.0041 c 0,0 -0.028285,4.898e-4 -0.049452,0.019246 -0.021166,0.018758 -0.016551,0.064513 -0.016551,0.064513 l 2.043e-4,0.6169749 c 0,0 0.00367,0.020894 0.017165,0.032613 0.013496,0.011718 0.042301,0.015148 0.042301,0.015148 l 0.4434335,-0.00125 -0.00102,0.1500557 -0.08787,0.089998 -0.8298543,-0.00321 c 0,0 -0.046533,0.027609 -0.047204,0.1231456 -6.722e-4,0.095536 0.042912,0.1233237 0.042912,0.1233237 l 0.96738,-0.00249 0.2294819,-0.2414792 0.00777,-0.3858321 0.00184,-0.00107 0.00143,-0.9856985 C 2.8332343,1.0846376 2.8232902,1.0563121 2.81978,1.037349 2.7783386,0.86994279 2.6149242,0.59341756 2.4282487,0.45049148 2.1282359,0.22079011 1.6002934,0.20577164 1.5979856,0.20580446 Z"
     sodipodi:nodetypes="zscccccccccccssczsscccccccccccccccccccsz" /><path
     style="fill:url(#radialGradient5200);fill-opacity:1;fill-rule:evenodd;stroke:#003536;stroke-width:0.2;stroke-linecap:butt;stroke-linejoin:miter;stroke-dasharray:none;stroke-opacity:0.607843"
     d="M 3.4395833,2.38125 V 1.4552083 h 2.1166666 v 2.7285156 l 1.661914,0 L 6.5897785,2.9848306 7.185091,2.5548827 8.3182011,4.649779 7.2685909,6.8513393 6.6247716,6.4721033 7.2767665,5.0045698 5.5893228,4.9963016 V 7.8713541 H 3.4065103 V 7.0445312 H 4.9774739 V 5.0436197 H 3.4230468 V 4.2333333 H 4.9278645 V 2.3647135 Z"
     id="path4962"
     sodipodi:nodetypes="cccccccccccccccccccccc" /></svg>
