<?xml version="1.0" encoding="UTF-8" standalone="no"?>
<!-- Created with Inkscape (http://www.inkscape.org/) -->

<svg
   width="32"
   height="32"
   viewBox="0 0 8.4666666 8.4666666"
   version="1.1"
   id="svg1517"
   inkscape:version="1.2.2 (732a01da63, 2022-12-09)"
   sodipodi:docname="TreeFontHeight.svg"
   xml:space="preserve"
   inkscape:export-filename="..\..\Design\TreeFontHeight.png"
   inkscape:export-xdpi="96"
   inkscape:export-ydpi="96"
   xmlns:inkscape="http://www.inkscape.org/namespaces/inkscape"
   xmlns:sodipodi="http://sodipodi.sourceforge.net/DTD/sodipodi-0.dtd"
   xmlns="http://www.w3.org/2000/svg"
   xmlns:svg="http://www.w3.org/2000/svg"><sodipodi:namedview
     id="namedview1519"
     pagecolor="#505050"
     bordercolor="#eeeeee"
     borderopacity="1"
     inkscape:showpageshadow="0"
     inkscape:pageopacity="0"
     inkscape:pagecheckerboard="0"
     inkscape:deskcolor="#505050"
     inkscape:document-units="mm"
     showgrid="false"
     inkscape:zoom="13.455443"
     inkscape:cx="14.455117"
     inkscape:cy="14.529436"
     inkscape:window-width="1280"
     inkscape:window-height="961"
     inkscape:window-x="-8"
     inkscape:window-y="-8"
     inkscape:window-maximized="1"
     inkscape:current-layer="svg1517" /><defs
     id="defs1514" /><g
     aria-label="A"
     transform="scale(0.93166489,1.0733473)"
     id="text349"
     style="font-size:7.89243px;line-height:125%;font-family:Impact;-inkscape-font-specification:Impact;letter-spacing:0px;word-spacing:0px;fill:#191919;stroke:#ffffff;stroke-width:0.05"><path
       d="m 2.7673693,2.2554922 -0.7393317,2.4419592 1.503623,0 z M 2.3280446,1.067242 h 0.8825031 l 2.1927699,5.7536122 -1.0836597,0 -0.5663185,-1.4759769 -1.9814849,0 -0.5030008,1.4759769 H 0.13142107 Z"
       style="font-family:sans-serif;-inkscape-font-specification:sans-serif"
       id="path1486"
       sodipodi:nodetypes="ccccccccccccc" /></g><g
     aria-label="A"
     transform="scale(0.98623102,1.0139612)"
     id="text957"
     style="font-size:3.78765px;line-height:125%;font-family:Impact;-inkscape-font-specification:Impact;letter-spacing:0px;word-spacing:0px;fill:#191919;stroke:#ffffff;stroke-width:0.05"><path
       d="m 7.2145832,5.1712947 -0.2942677,0.9175084 0.6015634,-0.0097 z M 7.0037472,4.4629895 H 7.4272686 L 8.4795992,7.2242012 H 7.8588004 L 7.5973076,6.5158662 H 6.8286474 L 6.5858835,7.2242012 H 5.9495673 Z"
       style="font-family:sans-serif;-inkscape-font-specification:sans-serif"
       id="path1483"
       sodipodi:nodetypes="ccccccccccccc" /></g><path
     style="fill:#191919;fill-opacity:1;fill-rule:evenodd;stroke:#ffffff;stroke-width:0.05;stroke-linecap:butt;stroke-linejoin:miter;stroke-dasharray:none;stroke-opacity:1"
     d="m 5.3862338,2.7109188 c 5.57e-5,-0.1158692 0.4348101,-0.1084953 0.4348291,0.00737 4.53e-5,0.2769721 -0.014746,0.9464691 -0.014746,0.9464691 0,0 0.1684296,-0.236668 0.3289493,-0.538368 0.059318,-0.111489 0.4699525,0.0976 0.4023869,0.204289 -0.3357323,0.530152 -0.8422743,1.299405 -0.9216926,1.296562 -0.1216279,-0.0044 -0.5509877,-0.751196 -0.9219611,-1.314926 -0.078576,-0.119405 0.30871,-0.319904 0.3810759,-0.196637 0.1564242,0.266451 0.3169578,0.524748 0.3169578,0.524748 0,0 -0.00594,-0.636294 -0.0058,-0.929511 z"
     id="path2249"
     sodipodi:nodetypes="sscssssscs" /><path
     style="fill:#191919;fill-opacity:1;fill-rule:evenodd;stroke:#ffffff;stroke-width:0.05;stroke-linecap:butt;stroke-linejoin:miter;stroke-dasharray:none;stroke-opacity:1"
     d="m 5.3862338,2.1734092 c 5.57e-5,0.1158692 0.4348101,0.1084953 0.4348291,-0.00737 4.53e-5,-0.2769721 -0.014746,-0.946469 -0.014746,-0.946469 0,0 0.1684296,0.2366679 0.3289493,0.5383679 0.059318,0.111489 0.4699525,-0.0976 0.4023869,-0.204289 C 6.2019208,1.0234972 5.6953788,0.25424418 5.6159605,0.25708718 5.4943326,0.26148718 5.0649728,1.0082832 4.6939994,1.5720131 c -0.078576,0.119405 0.30871,0.319904 0.3810759,0.196637 0.1564242,-0.266451 0.3169578,-0.5247479 0.3169578,-0.5247479 0,0 -0.00594,0.6362939 -0.0058,0.9295109 z"
     id="path2538"
     sodipodi:nodetypes="sscssssscs" /></svg>
