<?xml version="1.0" encoding="UTF-8" standalone="no"?>
<!-- Created with Inkscape (http://www.inkscape.org/) -->

<svg
   width="32"
   height="32"
   viewBox="0 0 8.4666667 8.4666667"
   version="1.1"
   id="svg5"
   xml:space="preserve"
   inkscape:version="1.2.2 (732a01da63, 2022-12-09)"
   sodipodi:docname="UserMarkDeleteAll.svg"
   xmlns:inkscape="http://www.inkscape.org/namespaces/inkscape"
   xmlns:sodipodi="http://sodipodi.sourceforge.net/DTD/sodipodi-0.dtd"
   xmlns="http://www.w3.org/2000/svg"
   xmlns:svg="http://www.w3.org/2000/svg"><sodipodi:namedview
     id="namedview7"
     pagecolor="#505050"
     bordercolor="#eeeeee"
     borderopacity="1"
     inkscape:showpageshadow="0"
     inkscape:pageopacity="0"
     inkscape:pagecheckerboard="0"
     inkscape:deskcolor="#505050"
     inkscape:document-units="mm"
     showgrid="false"
     inkscape:zoom="11.313708"
     inkscape:cx="15.688932"
     inkscape:cy="4.6403885"
     inkscape:window-width="1280"
     inkscape:window-height="961"
     inkscape:window-x="-8"
     inkscape:window-y="-8"
     inkscape:window-maximized="1"
     inkscape:current-layer="svg5" /><defs
     id="defs2" /><g
     id="g34860"
     transform="matrix(-1,0,0,1,8.4443419,-0.08944038)"><path
       id="path34856"
       style="fill:#feffff;fill-opacity:1;fill-rule:evenodd;stroke:#000000;stroke-width:0.7;stroke-linecap:round;stroke-linejoin:round;stroke-dasharray:none;stroke-opacity:0.493671"
       d="M 6.9339437,1.5647624 7.9421509,2.5724528 Z M 6.321578,2.5745199 h 1.6195394 z m 1.6205729,0.048576 -1.0082072,1.0076904 z" /><path
       id="path34858"
       style="fill:#feffff;fill-opacity:1;fill-rule:evenodd;stroke:#fffffd;stroke-width:0.523;stroke-linecap:round;stroke-linejoin:round;stroke-dasharray:none;stroke-opacity:1"
       d="M 6.9339437,1.5647624 7.9421509,2.5724528 Z M 6.321578,2.5745199 h 1.6195394 z m 1.6205729,0.048576 -1.0082072,1.0076904 z" /></g><path
     id="rect31464"
     style="fill:#e60014;fill-opacity:1;stroke:#000000;stroke-width:0.119416;stroke-linecap:round;stroke-linejoin:round;stroke-dasharray:none;stroke-opacity:0.189873;paint-order:normal"
     d="M 5.3708289,4.9098246 4.8981315,5.382522 6.1338713,6.618262 4.8981315,7.8540018 5.3708289,8.3266994 6.6065688,7.0909595 7.8423088,8.3266994 8.3150062,7.8540018 7.0792664,6.618262 8.3150062,5.382522 7.8423088,4.9098246 6.6065689,6.1455644 Z" /><g
     id="g34854"
     transform="translate(0,-0.08944038)"><path
       id="path34850"
       style="fill:#feffff;fill-opacity:1;fill-rule:evenodd;stroke:#000000;stroke-width:0.7;stroke-linecap:round;stroke-linejoin:round;stroke-dasharray:none;stroke-opacity:0.493671"
       d="M 6.9339437,1.5647624 7.9421509,2.5724528 Z M 6.321578,2.5745199 h 1.6195394 z m 1.6205729,0.048576 -1.0082072,1.0076904 z" /><path
       id="path34696"
       style="fill:#feffff;fill-opacity:1;fill-rule:evenodd;stroke:#fffffd;stroke-width:0.523;stroke-linecap:round;stroke-linejoin:round;stroke-dasharray:none;stroke-opacity:1"
       d="M 6.9339437,1.5647624 7.9421509,2.5724528 Z M 6.321578,2.5745199 h 1.6195394 z m 1.6205729,0.048576 -1.0082072,1.0076904 z" /></g><g
     id="g19305"
     transform="matrix(0.63010247,0,0,0.63010247,1.5508715,-0.14934787)"><circle
       style="fill:#f70303;fill-opacity:1;stroke:none;stroke-width:0.630769;stroke-linecap:square;stroke-linejoin:round"
       id="path4980"
       cx="4.2571836"
       cy="4.2178564"
       r="3.5142441" /><circle
       style="fill:#ff5555;fill-opacity:1;stroke:#ffffff;stroke-width:0.3;stroke-linecap:square;stroke-linejoin:round;stroke-dasharray:none;stroke-opacity:0.695971"
       id="path4985"
       cx="4.2571836"
       cy="4.2178564"
       r="2.8139818" /><circle
       style="fill:#ffffff;fill-opacity:1;stroke:#ffffff;stroke-width:0.26774;stroke-linecap:square;stroke-linejoin:round;stroke-dasharray:none;stroke-opacity:0.494506"
       id="path6230"
       cx="4.2094951"
       cy="5.8114419"
       r="0.43711832" /><path
       style="fill:#ffffff;fill-opacity:1;fill-rule:evenodd;stroke:#ffffff;stroke-width:0.265;stroke-linecap:butt;stroke-linejoin:miter;stroke-dasharray:none;stroke-opacity:0.494506"
       d="M 3.7541641,2.5305846 C 3.7549306,2.326117 4.0518654,2.1763027 4.2547193,2.1760247 4.4575732,2.1757467 4.7472357,2.3223962 4.7483222,2.5236325 4.7498949,2.8149252 4.6564417,4.076909 4.6437209,4.523642 4.6368278,4.7657149 4.4190656,4.861958 4.2436449,4.8657217 4.0599758,4.8696624 3.8120842,4.7140008 3.8097806,4.5258532 3.8045229,4.0964204 3.752962,2.8512481 3.7541641,2.5305846 Z"
       id="path4991"
       sodipodi:nodetypes="szssass" /></g></svg>
